<?xml version="1.0" encoding="UTF-8"?>
<svg xmlns="http://www.w3.org/2000/svg" xmlns:xlink="http://www.w3.org/1999/xlink" viewBox="0 0 24 24" width="24px" height="24px">
<g id="surface59994162">
<rect x="0" y="0" width="24" height="24" style="fill:rgb(9.019608%,9.019608%,9.019608%);fill-opacity:1;stroke:none;"/>
<path style=" stroke:none;fill-rule:nonzero;fill:rgb(58.431375%,64.705884%,65.098041%);fill-opacity:1;" d="M 19.679688 2.398438 C 16.421875 2.394531 14.625 4.222656 13.519531 7.78125 C 14.097656 7.566406 14.675781 7.304688 15.203125 7.304688 C 16.308594 7.304688 16.675781 7.714844 16.515625 8.988281 C 16.464844 9.785156 16.148438 11.070312 15.203125 12.558594 C 14.253906 13.992188 13.433594 14.398438 12.960938 14.398438 C 12.382812 14.398438 11.945312 13.570312 11.472656 11.339844 C 11.3125 10.699219 10.945312 9.265625 10.523438 6.558594 C 10.15625 4.0625 8.933594 2.71875 7.199219 2.878906 C 6.464844 2.933594 5.585938 3.617188 4.113281 4.890625 C 3.0625 5.847656 2.0625 6.539062 0.960938 7.496094 L 2.011719 8.84375 C 3.007812 8.152344 3.589844 7.886719 3.746094 7.886719 C 4.480469 7.886719 5.164062 9.054688 5.847656 11.445312 C 6.425781 13.621094 7.054688 15.796875 7.636719 17.976562 C 8.527344 20.367188 9.632812 21.535156 10.894531 21.535156 C 12.996094 21.535156 15.515625 19.625 18.515625 15.695312 C 21.457031 11.976562 22.933594 8.898438 23.039062 6.71875 C 23.144531 3.851562 21.992188 2.453125 19.679688 2.398438 Z M 19.679688 2.398438 "/>
</g>
</svg>
